<svg width="196" height="196" viewBox="0 0 196 196" fill="none" xmlns="http://www.w3.org/2000/svg">
<g filter="url(#filter0_d_14_1979)">
<circle cx="98" cy="98" r="48" fill="#EE6E45"/>
</g>
<path d="M79.5479 100.588H81.9634C82.0187 101.075 82.276 101.471 82.7354 101.775C83.2002 102.074 83.7674 102.224 84.437 102.224C85.1011 102.224 85.6406 102.083 86.0557 101.8C86.4762 101.513 86.6865 101.147 86.6865 100.705C86.6865 100.317 86.5316 100.005 86.2217 99.7666C85.9118 99.5286 85.3944 99.3294 84.6694 99.1689L83.1089 98.8286C80.9119 98.3582 79.8135 97.2432 79.8135 95.4834C79.8135 94.3877 80.2396 93.5023 81.0918 92.8271C81.9495 92.152 83.0508 91.8145 84.3955 91.8145C85.779 91.8145 86.883 92.1437 87.7075 92.8022C88.5321 93.4552 88.9554 94.3268 88.9775 95.417H86.6284C86.5897 94.9134 86.3656 94.5177 85.9561 94.23C85.5521 93.9367 85.0347 93.79 84.4038 93.79C83.784 93.79 83.2832 93.9256 82.9014 94.1968C82.5251 94.4679 82.3369 94.8249 82.3369 95.2676C82.3369 95.6328 82.4891 95.9289 82.7935 96.1558C83.1034 96.3826 83.6042 96.5763 84.2959 96.7368L85.7485 97.0439C86.9494 97.2985 87.8237 97.6969 88.3716 98.2393C88.9194 98.776 89.1934 99.501 89.1934 100.414C89.1934 101.576 88.7562 102.5 87.8818 103.187C87.0075 103.867 85.826 104.208 84.3374 104.208C82.8931 104.208 81.742 103.887 80.8843 103.245C80.0321 102.597 79.5866 101.712 79.5479 100.588ZM91.1772 93.0513H93.6011V95.1016H95.2446V96.9277H93.6011V101.186C93.6011 101.856 93.9497 102.19 94.647 102.19C94.8739 102.19 95.0703 102.177 95.2363 102.149V103.934C94.9541 104 94.5695 104.033 94.0825 104.033C93.0366 104.033 92.2896 103.845 91.8413 103.469C91.3986 103.092 91.1772 102.47 91.1772 101.601V96.9277H89.9238V95.1016H91.1772V93.0513ZM99.9263 102.39C100.463 102.39 100.917 102.235 101.288 101.925C101.664 101.609 101.852 101.214 101.852 100.738V100.09L99.9761 100.207C99.5223 100.24 99.1709 100.353 98.9219 100.547C98.6784 100.741 98.5566 100.995 98.5566 101.311C98.5566 101.643 98.6812 101.905 98.9302 102.099C99.1792 102.293 99.5112 102.39 99.9263 102.39ZM99.1294 104.141C98.2716 104.141 97.5605 103.889 96.9961 103.386C96.4316 102.882 96.1494 102.235 96.1494 101.443C96.1494 100.635 96.4482 100.002 97.0459 99.5425C97.6436 99.0832 98.4985 98.8203 99.6108 98.7539L101.852 98.6211V98.0317C101.852 97.6222 101.716 97.3013 101.445 97.0688C101.18 96.8364 100.817 96.7202 100.358 96.7202C99.9152 96.7202 99.5527 96.8198 99.2705 97.019C98.9938 97.2183 98.825 97.4867 98.7642 97.8242H96.5479C96.5921 96.9499 96.9657 96.2471 97.6685 95.7158C98.3713 95.179 99.3037 94.9106 100.466 94.9106C101.606 94.9106 102.519 95.1818 103.205 95.7241C103.891 96.2664 104.234 96.9858 104.234 97.8823V104H101.894V102.639H101.844C101.6 103.104 101.229 103.472 100.731 103.743C100.233 104.008 99.6994 104.141 99.1294 104.141ZM105.803 104V95.1016H108.144V96.7036H108.194C108.349 96.1392 108.609 95.7075 108.974 95.4087C109.339 95.1099 109.785 94.9604 110.311 94.9604C110.565 94.9604 110.795 94.9909 111 95.0518V97.1851C110.773 97.091 110.479 97.0439 110.12 97.0439C109.522 97.0439 109.057 97.2183 108.725 97.5669C108.393 97.9155 108.227 98.4025 108.227 99.0278V104H105.803ZM112.643 93.0513H115.067V95.1016H116.71V96.9277H115.067V101.186C115.067 101.856 115.416 102.19 116.113 102.19C116.34 102.19 116.536 102.177 116.702 102.149V103.934C116.42 104 116.035 104.033 115.548 104.033C114.502 104.033 113.755 103.845 113.307 103.469C112.864 103.092 112.643 102.47 112.643 101.601V96.9277H111.39V95.1016H112.643V93.0513Z" fill="white"/>
<defs>
<filter id="filter0_d_14_1979" x="0" y="0" width="196" height="196" filterUnits="userSpaceOnUse" color-interpolation-filters="sRGB">
<feFlood flood-opacity="0" result="BackgroundImageFix"/>
<feColorMatrix in="SourceAlpha" type="matrix" values="0 0 0 0 0 0 0 0 0 0 0 0 0 0 0 0 0 0 127 0" result="hardAlpha"/>
<feOffset/>
<feGaussianBlur stdDeviation="25"/>
<feComposite in2="hardAlpha" operator="out"/>
<feColorMatrix type="matrix" values="0 0 0 0 0.729412 0 0 0 0 0.109804 0 0 0 0 0.529412 0 0 0 0.3 0"/>
<feBlend mode="normal" in2="BackgroundImageFix" result="effect1_dropShadow_14_1979"/>
<feBlend mode="normal" in="SourceGraphic" in2="effect1_dropShadow_14_1979" result="shape"/>
</filter>
</defs>
</svg>
