<svg width="40" height="40" viewBox="0 0 40 40" fill="none" xmlns="http://www.w3.org/2000/svg">
<g clip-path="url(#clip0_24_4592)">
<path d="M8.17592 12.3924C8.93966 11.6286 10.1823 11.6286 10.9462 12.3924C13.0604 14.5066 16.5006 14.5066 18.6148 12.3924C18.9848 12.0224 19.4768 11.8186 20 11.8186C20.5233 11.8186 21.0152 12.0225 21.3852 12.3924C23.4994 14.5066 26.9396 14.5066 29.0538 12.3924C29.4238 12.0224 29.9158 11.8186 30.439 11.8186C30.9623 11.8186 31.4542 12.0225 31.8242 12.3924C32.8484 13.4166 34.2102 13.9806 35.6585 13.9806C37.107 13.9806 38.4686 13.4166 39.4928 12.3924C40.1692 11.716 40.1691 10.6195 39.4928 9.94324C38.8164 9.26687 37.7199 9.26687 37.0436 9.94324C36.6737 10.3132 36.1818 10.517 35.6585 10.517C35.1352 10.517 34.6433 10.3132 34.2734 9.94332C33.2493 8.91912 31.8875 8.35507 30.4391 8.35498C30.439 8.35498 30.4391 8.35498 30.439 8.35498C28.9907 8.35498 27.6289 8.91912 26.6047 9.94324C25.841 10.7071 24.598 10.7069 23.8345 9.94332C22.8104 8.91912 21.4485 8.35507 20.0002 8.35498C20 8.35498 20.0002 8.35498 20.0001 8.35498C18.5518 8.35498 17.19 8.91912 16.1658 9.94324C15.402 10.7071 14.1591 10.707 13.3956 9.94324C11.2813 7.82894 7.84107 7.82894 5.72686 9.94324C4.96313 10.707 3.72037 10.707 2.95646 9.94324C2.2801 9.26687 1.1836 9.26687 0.507319 9.94324C-0.168958 10.6196 -0.168958 11.7161 0.507406 12.3924C2.62144 14.5066 6.06154 14.5066 8.17592 12.3924Z" fill="#2DF3E7"/>
<path d="M37.0436 18.7755C36.6737 19.1455 36.1818 19.3493 35.6585 19.3493C35.1352 19.3493 34.6433 19.1454 34.2734 18.7756C33.2493 17.7514 31.8875 17.1873 30.4391 17.1873C30.439 17.1873 30.4391 17.1873 30.439 17.1873C28.9907 17.1873 27.6289 17.7514 26.6047 18.7755C25.841 19.5393 24.598 19.5392 23.8345 18.7756C22.8104 17.7514 21.4485 17.1873 20.0002 17.1873C20 17.1873 20.0002 17.1873 20.0001 17.1873C18.5518 17.1873 17.19 17.7514 16.1658 18.7755C15.402 19.5393 14.1591 19.5392 13.3956 18.7755C11.2813 16.6612 7.84107 16.6612 5.72686 18.7755C4.96313 19.5392 3.72037 19.5392 2.95646 18.7755C2.2801 18.0991 1.1836 18.0991 0.507319 18.7755C-0.168958 19.4519 -0.168958 20.5484 0.507406 21.2247C2.62162 23.3389 6.06171 23.3389 8.1761 21.2247C8.93983 20.4609 10.1825 20.4609 10.9464 21.2247C13.0606 23.3389 16.5008 23.3389 18.615 21.2247C18.985 20.8547 19.4769 20.6509 20.0002 20.6509C20.5235 20.6509 21.0154 20.8547 21.3854 21.2247C23.4996 23.3389 26.9398 23.3389 29.054 21.2247C29.424 20.8547 29.9159 20.6509 30.4392 20.6509C30.9625 20.6509 31.4544 20.8547 31.8244 21.2247C32.8486 22.2489 34.2103 22.8129 35.6587 22.8129C37.1072 22.8129 38.4688 22.2489 39.493 21.2247C40.1694 20.5483 40.1693 19.4518 39.4929 18.7755C38.8164 18.0991 37.7199 18.0991 37.0436 18.7755Z" fill="#2DF3E7"/>
<path d="M37.0436 27.6078C36.6737 27.9778 36.1818 28.1815 35.6585 28.1815C35.1352 28.1815 34.6433 27.9777 34.2734 27.6079C33.2493 26.5837 31.8875 26.0196 30.4391 26.0195C30.439 26.0195 30.4391 26.0195 30.439 26.0195C28.9907 26.0195 27.6289 26.5837 26.6047 27.6078C25.841 28.3716 24.598 28.3714 23.8345 27.6079C22.8104 26.5837 21.4485 26.0196 20.0002 26.0195C20 26.0195 20.0002 26.0195 20.0001 26.0195C18.5518 26.0195 17.19 26.5837 16.1658 27.6078C15.402 28.3715 14.1591 28.3716 13.3956 27.6078C11.2813 25.4935 7.84107 25.4935 5.72686 27.6078C4.96313 28.3715 3.72037 28.3715 2.95646 27.6078C2.2801 26.9314 1.1836 26.9314 0.507319 27.6078C-0.168958 28.2842 -0.168958 29.3807 0.507406 30.0569C2.62162 32.1711 6.06171 32.1711 8.1761 30.0569C8.93983 29.2932 10.1825 29.2932 10.9464 30.0569C13.0606 32.1711 16.5008 32.1711 18.615 30.0569C18.985 29.6869 19.4769 29.4832 20.0002 29.4832C20.5235 29.4832 21.0154 29.687 21.3854 30.0569C23.4996 32.1711 26.9398 32.1711 29.054 30.0569C29.424 29.6869 29.9159 29.4832 30.4392 29.4832C30.9625 29.4832 31.4544 29.687 31.8244 30.0569C32.8486 31.0811 34.2103 31.6452 35.6587 31.6452C37.1072 31.6452 38.4688 31.0811 39.493 30.0569C40.1694 29.3806 40.1693 28.2841 39.4929 27.6078C38.8164 26.9314 37.7199 26.9314 37.0436 27.6078Z" fill="#2DF3E7"/>
</g>
<defs>
<clipPath id="clip0_24_4592">
<rect width="40" height="40" fill="white"/>
</clipPath>
</defs>
</svg>
