<svg width="40" height="40" viewBox="0 0 40 40" fill="none" xmlns="http://www.w3.org/2000/svg">
<path d="M31.6073 0.579405C31.4221 0.224862 31.0552 0 30.655 0H14.9538C14.479 0 14.0605 0.314269 13.9247 0.769094L8.31589 19.5647C8.21883 19.8899 8.28112 20.2398 8.48383 20.5118C8.68654 20.7839 9.00591 20.9423 9.34501 20.9423H18.1487L14.6021 38.7138C14.4988 39.2306 14.7859 39.7471 15.2796 39.9314C15.4027 39.9773 15.5297 40 15.655 40C16.0317 40 16.3928 39.8013 16.5885 39.4576L30.4198 15.1688C30.6091 14.8363 30.6073 14.426 30.415 14.0953C30.2228 13.7645 29.8692 13.5588 29.4866 13.5588H23.2586L31.536 1.68948C31.7649 1.36125 31.7924 0.934216 31.6073 0.579405Z" fill="#FAFF14"/>
</svg>
